<?xml version="1.0" standalone="no"?>
<!DOCTYPE svg PUBLIC "-//W3C//DTD SVG 20010904//EN"
 "http://www.w3.org/TR/2001/REC-SVG-20010904/DTD/svg10.dtd">
<svg version="1.0" xmlns="http://www.w3.org/2000/svg"
 width="512.000000pt" height="512.000000pt" viewBox="0 0 1024.000000 1024.000000"
 preserveAspectRatio="xMidYMid meet">

<g transform="translate(0.000000,1024.000000) scale(0.100000,-0.100000)"
fill="red" stroke="none">
<path d="M7230 8135 l0 -185 -95 0 -95 0 0 -185 0 -185 88 -44 c48 -24 131
-63 185 -86 l97 -43 -2 -1746 c-3 -1622 -4 -1750 -20 -1796 -37 -108 -138
-150 -240 -99 -37 19 -65 58 -85 118 -16 47 -18 143 -23 1126 -6 1204 -1 1114
-82 1280 -94 194 -285 316 -552 354 l-81 12 -5 609 c-5 601 -5 611 -27 669
-68 180 -203 305 -379 351 -86 22 -2770 22 -2854 0 -173 -46 -312 -175 -377
-350 -17 -48 -18 -155 -23 -2760 l-5 -2710 -145 -6 c-169 -6 -229 -24 -304
-91 -81 -71 -90 -98 -94 -286 l-4 -162 2377 0 2376 0 -3 173 c-3 170 -4 174
-31 215 -37 57 -109 108 -186 132 -49 16 -91 20 -192 20 l-129 0 0 1921 0
1922 38 -6 c114 -19 217 -72 259 -136 54 -80 53 -55 53 -1126 0 -646 4 -1029
11 -1100 20 -204 63 -324 149 -418 97 -106 207 -142 420 -134 156 5 224 24
305 85 91 69 152 186 186 357 9 45 13 505 16 1821 l4 1761 184 89 185 88 0
183 0 183 -90 0 -90 0 0 185 0 185 -85 0 -85 0 -2 -182 -3 -183 -182 -3 -183
-2 0 185 0 185 -90 0 -90 0 0 -185z m-1470 -1465 l0 -910 -1280 0 -1280 0 0
910 0 910 1280 0 1280 0 0 -910z m-1125 -1776 c8 -4 22 -18 30 -33 12 -24 7
-59 -54 -364 l-68 -337 186 0 c128 0 194 -4 210 -13 42 -21 66 -64 66 -115 -1
-44 -18 -74 -324 -547 -177 -275 -332 -510 -344 -522 -42 -46 -147 -15 -147
42 0 20 106 540 127 623 l5 22 -191 0 c-212 0 -238 6 -266 60 -33 65 -35 62
321 632 185 296 344 543 353 548 18 11 72 13 96 4z"/>
</g>
</svg>
